<svg width="1em" height="1em" viewBox="0 0 24 24" fill="none" xmlns="http://www.w3.org/2000/svg">
<path fill-rule="evenodd" clip-rule="evenodd" d="M21.4248 6.1753C21.4807 6.23103 21.525 6.29724 21.5552 6.37014C21.5855 6.44303 21.6011 6.52117 21.6011 6.6001C21.6011 6.67902 21.5855 6.75716 21.5552 6.83006C21.525 6.90295 21.4807 6.96916 21.4248 7.0249L14.2248 14.2249C14.1121 14.3376 13.9593 14.4009 13.8 14.4009C13.6407 14.4009 13.4879 14.3376 13.3752 14.2249C13.2625 14.1122 13.1992 13.9594 13.1992 13.8001C13.1992 13.6408 13.2625 13.488 13.3752 13.3753L20.5752 6.1753C20.6309 6.11942 20.6971 6.07509 20.77 6.04484C20.8429 6.01459 20.9211 5.99902 21 5.99902C21.0789 5.99902 21.1571 6.01459 21.23 6.04484C21.3028 6.07509 21.3691 6.11942 21.4248 6.1753Z" fill="currentColor"/>
<path fill-rule="evenodd" clip-rule="evenodd" d="M21.6 8V15.6001C21.6 16.2366 21.3471 16.8471 20.897 17.2972C20.447 17.7472 19.8365 18.0001 19.2 18.0001H4.79999C4.16347 18.0001 3.55302 17.7472 3.10294 17.2972C2.65285 16.8471 2.39999 16.2366 2.39999 15.6001V8.4001C2.39999 7.76358 2.65285 7.15313 3.10294 6.70304C3.55302 6.25295 4.16347 6.0001 4.79999 6.0001L19.5 6L12.5 13C12 13.5 12.0273 14.5273 12.5 15C13 15.5 14 16 15 15L21.6 8ZM4.97573 9.77583C4.86321 9.88835 4.79999 10.041 4.79999 10.2001C4.79999 10.3592 4.86321 10.5118 4.97573 10.6244C5.08825 10.7369 5.24086 10.8001 5.39999 10.8001H7.79999C7.95912 10.8001 8.11174 10.7369 8.22426 10.6244C8.33678 10.5118 8.39999 10.3592 8.39999 10.2001C8.39999 10.041 8.33678 9.88835 8.22426 9.77583C8.11174 9.66331 7.95912 9.6001 7.79999 9.6001H5.39999C5.24086 9.6001 5.08825 9.66331 4.97573 9.77583ZM4.97573 13.3758C4.86321 13.4884 4.79999 13.641 4.79999 13.8001C4.79999 13.9592 4.86321 14.1118 4.97573 14.2244C5.08825 14.3369 5.24086 14.4001 5.39999 14.4001H9.9C10.0591 14.4001 10.2117 14.3369 10.3243 14.2244C10.4368 14.1118 10.5 13.9592 10.5 13.8001C10.5 13.641 10.4368 13.4884 10.3243 13.3758C10.2117 13.2633 10.0591 13.2001 9.9 13.2001H5.39999C5.24086 13.2001 5.08825 13.2633 4.97573 13.3758Z" fill="currentColor"/>
</svg>
