<svg width="1em" height="1em" viewBox="0 0 24 24" fill="none" xmlns="http://www.w3.org/2000/svg">
<path d="M21.6 8.5453V15.6001C21.6 16.2366 21.3471 16.8471 20.897 17.2972C20.447 17.7472 19.8365 18.0001 19.2 18.0001H4.79999C4.16347 18.0001 3.55302 17.7472 3.10294 17.2972C2.65285 16.8471 2.39999 16.2366 2.39999 15.6001V8.4001C2.39999 7.76358 2.65285 7.15313 3.10294 6.70304C3.55302 6.25295 4.16347 6.0001 4.79999 6.0001H19.0548L17.8548 7.2001H4.79999C4.48173 7.2001 4.17651 7.32652 3.95147 7.55157C3.72642 7.77661 3.59999 8.08184 3.59999 8.4001V15.6001C3.59999 15.9184 3.72642 16.2236 3.95147 16.4486C4.17651 16.6737 4.48173 16.8001 4.79999 16.8001H19.2C19.5183 16.8001 19.8235 16.6737 20.0485 16.4486C20.2736 16.2236 20.4 15.9184 20.4 15.6001V9.7453L21.6 8.5453ZM4.79999 10.2001C4.79999 10.041 4.86321 9.88835 4.97573 9.77583C5.08825 9.66331 5.24086 9.6001 5.39999 9.6001H7.79999C7.95912 9.6001 8.11174 9.66331 8.22426 9.77583C8.33678 9.88835 8.39999 10.041 8.39999 10.2001C8.39999 10.3592 8.33678 10.5118 8.22426 10.6244C8.11174 10.7369 7.95912 10.8001 7.79999 10.8001H5.39999C5.24086 10.8001 5.08825 10.7369 4.97573 10.6244C4.86321 10.5118 4.79999 10.3592 4.79999 10.2001ZM4.79999 13.8001C4.79999 13.641 4.86321 13.4884 4.97573 13.3758C5.08825 13.2633 5.24086 13.2001 5.39999 13.2001H10.8C10.9591 13.2001 11.1117 13.2633 11.2243 13.3758C11.3368 13.4884 11.4 13.641 11.4 13.8001C11.4 13.9592 11.3368 14.1118 11.2243 14.2244C11.1117 14.3369 10.9591 14.4001 10.8 14.4001H5.39999C5.24086 14.4001 5.08825 14.3369 4.97573 14.2244C4.86321 14.1118 4.79999 13.9592 4.79999 13.8001ZM21.4248 6.1753C21.4807 6.23103 21.525 6.29724 21.5552 6.37014C21.5855 6.44303 21.6011 6.52117 21.6011 6.6001C21.6011 6.67902 21.5855 6.75716 21.5552 6.83006C21.525 6.90295 21.4807 6.96916 21.4248 7.0249L14.2248 14.2249C14.1121 14.3376 13.9593 14.4009 13.8 14.4009C13.6407 14.4009 13.4879 14.3376 13.3752 14.2249C13.2625 14.1122 13.1992 13.9594 13.1992 13.8001C13.1992 13.6408 13.2625 13.488 13.3752 13.3753L20.5752 6.1753C20.6309 6.11942 20.6971 6.07509 20.77 6.04484C20.8429 6.01459 20.9211 5.99902 21 5.99902C21.0789 5.99902 21.1571 6.01459 21.23 6.04484C21.3028 6.07509 21.3691 6.11942 21.4248 6.1753Z" fill="currentColor"/>
</svg>
