<svg width="1em" height="1em" viewBox="0 0 24 24" fill="none" xmlns="http://www.w3.org/2000/svg">
<path fill-rule="evenodd" clip-rule="evenodd" d="M10.557 1.75C9.98479 1.75 9.4187 1.86598 8.89165 2.09079C8.36464 2.31558 7.88762 2.6445 7.4878 3.05769C7.08802 3.47084 6.77335 3.96005 6.56127 4.49657C6.34976 5.03162 6.24428 5.60359 6.25052 6.17966V16.316C6.24029 17.088 6.38007 17.8546 6.66215 18.5718C6.9449 19.2908 7.36521 19.9461 7.89939 20.4995C8.4336 21.0529 9.07109 21.4932 9.77522 21.794C10.4794 22.0949 11.2357 22.25 12 22.25C12.7643 22.25 13.5206 22.0949 14.2248 21.794C14.9289 21.4932 15.5664 21.0529 16.1006 20.4995C16.6348 19.9461 17.0551 19.2908 17.3379 18.5718C17.6199 17.8546 17.7597 17.088 17.7495 16.316V6.84032C17.7495 6.42611 17.4137 6.09032 16.9995 6.09032C16.5853 6.09032 16.2495 6.42611 16.2495 6.84032V16.3212L16.2496 16.3318C16.2578 16.9111 16.1531 17.486 15.9419 18.0228C15.7308 18.5596 15.4176 19.0473 15.0214 19.4577C14.6253 19.8681 14.154 20.1931 13.6355 20.4146C13.117 20.6361 12.5611 20.75 12 20.75C11.4389 20.75 10.883 20.6361 10.3645 20.4146C9.84602 20.1931 9.37475 19.8681 8.97857 19.4577C8.58236 19.0473 8.2692 18.5596 8.05807 18.0228C7.84692 17.486 7.74224 16.9111 7.75045 16.3318L7.75052 16.3212V6.17541L7.75047 6.1665C7.74591 5.78304 7.81597 5.40281 7.95623 5.04799C8.09648 4.69319 8.30392 4.37136 8.56577 4.10076C8.82758 3.83019 9.13853 3.61624 9.48016 3.47052C9.82176 3.32481 10.1877 3.25 10.557 3.25C10.9262 3.25 11.2922 3.32481 11.6338 3.47052C11.9754 3.61624 12.2863 3.83019 12.5481 4.10076C12.81 4.37136 13.0174 4.69319 13.1577 5.04799C13.2979 5.40281 13.368 5.78304 13.3634 6.1665V6.1749L13.3566 16.2467C13.3496 16.6151 13.2016 16.9632 12.9489 17.2172C12.6955 17.4718 12.3575 17.6117 12.0086 17.6117C11.6598 17.6117 11.3218 17.4718 11.0684 17.2172C10.8157 16.9632 10.6677 16.6152 10.6607 16.2469V8.5646C10.6607 8.15038 10.3249 7.8146 9.91069 7.8146C9.49648 7.8146 9.16069 8.15038 9.16069 8.5646V16.2533L9.16078 16.2649C9.17245 17.0191 9.47399 17.7414 10.0051 18.2752C10.5367 18.8094 11.256 19.1117 12.0086 19.1117C12.7613 19.1117 13.4806 18.8094 14.0122 18.2752C14.5433 17.7414 14.8448 17.0191 14.8565 16.2649L14.8566 16.2538L14.8634 6.17991C14.8697 5.60376 14.7642 5.03169 14.5526 4.49657C14.3406 3.96005 14.0259 3.47084 13.6261 3.05769C13.2263 2.6445 12.7493 2.31558 12.2223 2.09079C11.6952 1.86598 11.1291 1.75 10.557 1.75Z" fill="currentColor"/>
</svg>
