<svg width="1em" height="1em" viewBox="0 0 24 25" fill="none" xmlns="http://www.w3.org/2000/svg">
<path d="M6.5 16.5C7.28333 16.5 8.04583 16.5875 8.7875 16.7625C9.52917 16.9375 10.2667 17.2 11 17.55V7.7C10.3167 7.3 9.59167 7 8.825 6.8C8.05833 6.6 7.28333 6.5 6.5 6.5C5.9 6.5 5.30417 6.55833 4.7125 6.675C4.12083 6.79167 3.55 6.96667 3 7.2V17.1C3.58333 16.9 4.1625 16.75 4.7375 16.65C5.3125 16.55 5.9 16.5 6.5 16.5ZM13 17.55C13.7333 17.2 14.4708 16.9375 15.2125 16.7625C15.9542 16.5875 16.7167 16.5 17.5 16.5C18.1 16.5 18.6875 16.55 19.2625 16.65C19.8375 16.75 20.4167 16.9 21 17.1V7.2C20.45 6.96667 19.8792 6.79167 19.2875 6.675C18.6958 6.55833 18.1 6.5 17.5 6.5C16.7167 6.5 15.9417 6.6 15.175 6.8C14.4083 7 13.6833 7.3 13 7.7V17.55ZM12 20.5C11.2 19.8667 10.3333 19.375 9.4 19.025C8.46667 18.675 7.5 18.5 6.5 18.5C5.8 18.5 5.1125 18.5917 4.4375 18.775C3.7625 18.9583 3.11667 19.2167 2.5 19.55C2.15 19.7333 1.8125 19.725 1.4875 19.525C1.1625 19.325 1 19.0333 1 18.65V6.6C1 6.41667 1.04583 6.24167 1.1375 6.075C1.22917 5.90833 1.36667 5.78333 1.55 5.7C2.31667 5.3 3.11667 5 3.95 4.8C4.78333 4.6 5.63333 4.5 6.5 4.5C7.46667 4.5 8.4125 4.625 9.3375 4.875C10.2625 5.125 11.15 5.5 12 6C12.85 5.5 13.7375 5.125 14.6625 4.875C15.5875 4.625 16.5333 4.5 17.5 4.5C18.3667 4.5 19.2167 4.6 20.05 4.8C20.8833 5 21.6833 5.3 22.45 5.7C22.6333 5.78333 22.7708 5.90833 22.8625 6.075C22.9542 6.24167 23 6.41667 23 6.6V18.65C23 19.0333 22.8375 19.325 22.5125 19.525C22.1875 19.725 21.85 19.7333 21.5 19.55C20.8833 19.2167 20.2375 18.9583 19.5625 18.775C18.8875 18.5917 18.2 18.5 17.5 18.5C16.5 18.5 15.5333 18.675 14.6 19.025C13.6667 19.375 12.8 19.8667 12 20.5Z" fill="currentColor"/>
</svg>
