<svg width="1em" height="1em" viewBox="0 0 24 24" fill="none" xmlns="http://www.w3.org/2000/svg">
<path fill-rule="evenodd" clip-rule="evenodd" d="M19 19H12V17H14V15H12V13H14V11H12V9H19C19.55 9 20 9.45 20 10V18C20 18.55 19.55 19 19 19ZM16 11H18V13H16V11ZM16 15H18V17H16V15Z" fill="currentColor"/>
<path fill-rule="evenodd" clip-rule="evenodd" d="M12 7V5C12 3.9 11.1 3 10 3H4C2.9 3 2 3.9 2 5V19C2 20.1 2.9 21 4 21H20C21.1 21 22 20.1 22 19V9C22 7.9 21.1 7 20 7H12ZM4 19H6V17H4V19ZM4 15H6V13H4V15ZM4 11H6V9H4V11ZM4 7H6V5H4V7ZM8 19H10V17H8V19ZM8 15H10V13H8V15ZM8 11H10V9H8V11ZM8 7H10V5H8V7ZM12 19H19C19.55 19 20 18.55 20 18V10C20 9.45 19.55 9 19 9H12V11V13V15V17V19Z" fill="currentColor"/>
</svg>
