<svg width="1em" height="1em" viewBox="0 0 24 24" fill="none" xmlns="http://www.w3.org/2000/svg">
<path fill-rule="evenodd" clip-rule="evenodd" d="M8.87305 6.375H18.4355C18.9745 6.375 19.4914 6.57254 19.8725 6.92417C20.2536 7.27581 20.4677 7.75272 20.4677 8.25V15.75C20.4677 16.2473 20.2536 16.7242 19.8725 17.0758C19.4914 17.4275 18.9745 17.625 18.4355 17.625H8.87305C8.56834 17.6249 8.26754 17.5617 7.99292 17.4398C7.7183 17.318 7.47688 17.1408 7.28654 16.9212L3.93331 13.055C3.67342 12.7557 3.5318 12.3835 3.5318 12C3.5318 11.6165 3.67342 11.2443 3.93331 10.945L7.28654 7.07875C7.47659 6.85954 7.71757 6.68251 7.9917 6.5607C8.26582 6.4389 8.56608 6.37544 8.87034 6.375H8.87305ZM5.69867 5.9075C6.0795 5.46826 6.56255 5.1137 7.11204 4.87005C7.66153 4.62641 8.26339 4.49994 8.87305 4.5H18.4355C19.5135 4.5 20.5473 4.89509 21.3095 5.59835C22.0718 6.30161 22.5 7.25544 22.5 8.25V15.75C22.5 16.7446 22.0718 17.6984 21.3095 18.4017C20.5473 19.1049 19.5135 19.5 18.4355 19.5H8.87305C8.26339 19.5001 7.66153 19.3736 7.11204 19.1299C6.56255 18.8863 6.0795 18.5317 5.69867 18.0925L2.3468 14.2262C1.79865 13.5944 1.5 12.8093 1.5 12C1.5 11.1907 1.79865 10.4056 2.3468 9.77375L5.69867 5.9075ZM11.3632 8.8375C11.1706 8.6719 10.9158 8.58175 10.6526 8.58603C10.3894 8.59032 10.1382 8.68871 9.95201 8.86047C9.76584 9.03224 9.6592 9.26397 9.65455 9.50685C9.64991 9.74972 9.74762 9.98478 9.92711 10.1625L11.9187 12L9.92711 13.8375C9.82728 13.9233 9.74721 14.0268 9.69167 14.1418C9.63613 14.2568 9.60627 14.381 9.60386 14.5068C9.60145 14.6327 9.62655 14.7578 9.67766 14.8745C9.72876 14.9912 9.80483 15.0973 9.90132 15.1863C9.99781 15.2753 10.1127 15.3455 10.2393 15.3927C10.3658 15.4398 10.5013 15.463 10.6378 15.4607C10.7742 15.4585 10.9087 15.431 11.0334 15.3797C11.158 15.3285 11.2702 15.2546 11.3632 15.1625L13.3549 13.325L15.3465 15.1625C15.4395 15.2546 15.5517 15.3285 15.6763 15.3797C15.801 15.431 15.9355 15.4585 16.0719 15.4607C16.2084 15.463 16.3439 15.4398 16.4704 15.3927C16.597 15.3455 16.7119 15.2753 16.8084 15.1863C16.9049 15.0973 16.9809 14.9912 17.032 14.8745C17.0831 14.7578 17.1082 14.6327 17.1058 14.5068C17.1034 14.381 17.0736 14.2568 17.018 14.1418C16.9625 14.0268 16.8824 13.9233 16.7826 13.8375L14.791 12L16.7826 10.1625C16.9621 9.98478 17.0598 9.74972 17.0551 9.50685C17.0505 9.26397 16.9439 9.03224 16.7577 8.86047C16.5715 8.68871 16.3203 8.59032 16.0571 8.58603C15.7939 8.58175 15.5391 8.6719 15.3465 8.8375L13.3549 10.675L11.3632 8.8375Z" fill="currentColor"/>
</svg>
