<svg width="1em" height="1em" viewBox="0 0 24 24" fill="none" xmlns="http://www.w3.org/2000/svg">
<path d="M9.21076 1.00029C8.87272 1.03357 8.58385 1.35689 8.58385 1.70553C8.58385 2.47701 8.88067 3.33124 9.36741 4.11922C7.91572 4.89895 6.65396 6.17632 5.64749 7.60298C4.01442 9.93392 3 12.6627 3 14.7363C3 16.8181 4.09686 18.6762 5.79619 19.9786C7.48699 21.2807 9.78819 22.0689 12.312 22.0689C14.8358 22.0689 17.1288 21.2807 18.8199 19.9786C20.5189 18.6762 21.624 16.8184 21.624 14.7363C21.624 12.6627 20.6011 9.93363 18.968 7.60298C17.9621 6.17602 16.7083 4.89041 15.2566 4.11068C15.7431 3.3227 16.0319 2.47672 16.0319 1.70523C16.0319 1.33186 15.7018 1 15.3388 1L9.21076 1.00029ZM10.151 2.40193H14.4731C14.3411 2.80828 14.1597 3.24791 13.8791 3.64602C13.4089 4.31798 12.8067 4.74936 12.312 4.74936C11.8173 4.74936 11.2149 4.31798 10.7366 3.64602C10.456 3.24791 10.2746 2.80828 10.151 2.40193ZM10.2664 5.23876C10.8188 5.76142 11.4952 6.15129 12.312 6.15129C13.1203 6.15129 13.8046 5.76142 14.3573 5.23876C15.6441 5.86095 16.8564 7.01376 17.8299 8.40744C19.3146 10.5226 20.2218 13.16 20.2218 14.7363C20.2218 16.3205 19.3967 17.7722 17.9783 18.867C16.5514 19.9615 14.5473 20.6667 12.312 20.6667C10.0768 20.6667 8.06413 19.9615 6.64542 18.867C5.21846 17.7719 4.39368 16.3205 4.39368 14.7363C4.39368 13.16 5.30916 10.5226 6.78558 8.40744C7.76731 7.01376 8.97136 5.86066 10.2664 5.23876ZM12.279 7.76846C11.9245 7.76846 11.5944 8.10003 11.5944 8.46516C11.1327 8.55644 10.6872 8.73047 10.2997 9.0208C9.71399 9.45219 9.28525 10.1739 9.28525 11.0281C9.28525 11.7581 9.68955 12.3885 10.2502 12.7864C10.6377 13.0517 11.0912 13.2342 11.5944 13.3173V15.5319C11.4045 15.4821 11.2316 15.4074 11.0997 15.3246C10.8109 15.1338 10.6789 14.943 10.6789 14.5946C10.6872 14.2213 10.3488 13.8812 9.98607 13.8812C9.61505 13.8812 9.27672 14.2213 9.28496 14.5946C9.28496 15.4156 9.73872 16.104 10.3241 16.4939C10.7119 16.7427 11.1406 16.9003 11.5941 16.9751C11.6024 17.3399 11.9407 17.6718 12.3035 17.6635C12.6662 17.6553 12.9963 17.3152 12.9881 16.95C13.4663 16.8505 13.9283 16.6682 14.3241 16.3694C14.9097 15.938 15.3385 15.2083 15.3385 14.3538C15.3385 13.6323 14.9262 12.9937 14.3653 12.6038C13.9778 12.3217 13.5075 12.1474 12.9878 12.0646V9.85C13.1939 9.90801 13.3838 9.97427 13.5237 10.0738C13.8123 10.2564 13.936 10.4389 13.936 10.7955C13.936 11.1689 14.2661 11.509 14.6371 11.509C15.0084 11.509 15.3382 11.1689 15.3382 10.7955C15.3382 9.97427 14.8847 9.28611 14.299 8.89595C13.9033 8.63064 13.4495 8.48135 12.9878 8.4148C12.9637 8.06705 12.6336 7.76022 12.279 7.76846ZM11.5944 9.9086V11.8744C11.3718 11.8164 11.1904 11.7334 11.0502 11.6338C10.7779 11.443 10.6789 11.2522 10.6789 11.0284C10.6789 10.6053 10.8356 10.373 11.1245 10.1492C11.2561 10.0579 11.413 9.97485 11.5944 9.9086ZM12.9884 13.5001C13.2192 13.5667 13.4254 13.6577 13.5658 13.7572C13.8461 13.948 13.9368 14.1306 13.9368 14.3544C13.9368 14.7857 13.7884 15.0263 13.4999 15.2419C13.3594 15.3496 13.1866 15.4327 12.9887 15.4992L12.9884 13.5001Z" fill="currentColor"/>
</svg>
