<svg width="1em" height="1em" viewBox="0 0 24 24" fill="none" xmlns="http://www.w3.org/2000/svg">
<path fill-rule="evenodd" clip-rule="evenodd" d="M8.60301 4.53073C7.3407 5.31866 6.23592 6.47553 5.33548 7.7519C3.7024 10.0828 2.68799 12.8116 2.68799 14.8852C2.68799 16.967 3.78485 18.8251 5.48418 20.1275C7.17497 21.4296 9.47618 22.2179 12 22.2179C14.5238 22.2179 16.8168 21.4296 18.5079 20.1275C20.2069 18.8251 21.312 16.9673 21.312 14.8852C21.312 12.8116 20.2891 10.0826 18.656 7.7519C17.7124 6.41327 16.5506 5.19903 15.2119 4.41013C14.781 5.01893 14.2758 5.54319 13.7354 5.92553C13.1968 6.30656 12.5511 6.59611 11.8698 6.59611C11.1885 6.59611 10.5431 6.30656 10.0039 5.9266C9.49709 5.56945 9.01984 5.08835 8.60301 4.53073ZM12.6513 17.8682V18.6905C12.6513 19.0331 12.3772 19.3072 12.0346 19.3072C11.6919 19.3072 11.4178 19.0331 11.4178 18.6905V17.9093C10.6778 17.8271 9.92397 17.5529 9.30723 17.0733C8.49862 16.5113 9.41687 15.1956 10.1981 15.7713C10.5681 16.0317 10.993 16.2372 11.4178 16.3332C11.6919 16.4017 11.9523 16.4291 12.199 16.4017C12.3772 16.3743 12.5143 16.3469 12.6513 16.3058C13.0625 16.1687 13.2406 15.8946 13.2132 15.5383C13.1721 15.2231 12.9802 15.0586 12.6513 14.9352C12.5222 14.8756 12.3714 14.8304 12.1991 14.7787C12.1336 14.7591 12.0651 14.7386 11.9935 14.716L11.4178 14.5378L10.9382 14.387C10.1021 14.1403 9.27982 13.551 9.15647 12.4272C9.04683 11.2211 9.96508 10.1247 11.4178 9.87796V9.09676C11.4178 8.75413 11.6919 8.48002 12.0346 8.48002C12.3772 8.48002 12.6513 8.75413 12.6513 9.09676V9.86426C13.2406 9.96019 13.8163 10.2069 14.3096 10.6043C15.0497 11.2074 14.2 12.3449 13.5285 11.7967C13.2269 11.6049 12.9528 11.4815 12.6513 11.413C12.4046 11.3445 12.1442 11.3171 11.8564 11.3445C11.6919 11.3582 11.5412 11.3993 11.4178 11.4541C11.0752 11.5775 10.897 11.8242 10.9382 12.1394C10.9656 12.4135 11.13 12.5642 11.4178 12.6876C11.5731 12.7599 11.7674 12.8168 11.9889 12.8815C11.9982 12.8842 12.0076 12.887 12.017 12.8897C12.0802 12.9083 12.1455 12.9275 12.2127 12.948L12.6513 13.0713L13.2406 13.2495C14.2274 13.5373 14.8853 14.1129 14.9949 15.2231C15.1183 16.4291 14.2822 17.5804 12.6513 17.8682Z" fill="currentColor"/>
<path d="M14.9964 2.78198C14.8375 3.12924 14.6475 3.47501 14.4161 3.80339C13.652 4.8952 12.6736 5.59611 11.8698 5.59611C11.066 5.59611 10.0871 4.8952 9.31016 3.80339C9.07869 3.47501 8.88877 3.12924 8.73158 2.78198C8.57913 2.44521 8.45747 2.10705 8.35854 1.78198H15.3811C15.2756 2.10705 15.1506 2.44521 14.9964 2.78198Z" fill="currentColor"/>
</svg>
