<svg width="1em" height="1em" viewBox="0 0 64 64" fill="none" xmlns="http://www.w3.org/2000/svg">
<path d="M32 5.3335C46.728 5.3335 58.6667 17.2748 58.6667 32.0002C58.6667 46.7255 46.728 58.6668 32 58.6668C17.272 58.6668 5.33337 46.7255 5.33337 32.0002C5.33337 17.2748 17.272 5.3335 32 5.3335ZM32 9.77883C19.7467 9.77883 9.77871 19.7468 9.77871 32.0002C9.77871 44.2535 19.7467 54.2215 32 54.2215C44.2534 54.2215 54.2214 44.2535 54.2214 32.0002C54.2214 19.7468 44.2534 9.77883 32 9.77883ZM31.9966 38.6727C33.4672 38.6727 34.6595 39.8652 34.6595 41.3359C34.6595 42.8066 33.4672 43.9991 31.9966 43.9991C30.5256 43.9991 29.3334 42.8066 29.3334 41.3359C29.3334 39.8652 30.5256 38.6727 31.9966 38.6727ZM31.9854 18.6668C32.9979 18.666 33.8352 19.4178 33.9683 20.3939L33.987 20.6652L33.9966 32.6695C33.9974 33.774 33.1027 34.6703 31.9982 34.6711C30.9856 34.6719 30.148 33.9202 30.015 32.9442L29.9966 32.6727L29.987 20.6684C29.9859 19.5639 30.8806 18.6677 31.9854 18.6668Z" fill="currentColor"/>
</svg>
