<svg width="1em" height="1em" viewBox="0 0 24 24" fill="none" xmlns="http://www.w3.org/2000/svg">
<path d="M21.0597 9.02982C21.6789 9.02982 22 8.68578 22 8.06652V5.41743C22 3.15826 20.8417 2 18.5482 2H15.8991C15.2798 2 14.9357 2.34404 14.9357 2.95183C14.9357 3.54817 15.2798 3.8922 15.8991 3.8922H18.4793C19.5229 3.8922 20.1192 4.45412 20.1192 5.54357V8.06652C20.1192 8.68578 20.4518 9.02982 21.0597 9.02982ZM2.94037 9.02982C3.55963 9.02982 3.8922 8.68578 3.8922 8.06652V5.54357C3.8922 4.45412 4.47707 3.8922 5.53211 3.8922H8.11238C8.72018 3.8922 9.06422 3.54817 9.06422 2.95183C9.06422 2.34404 8.72018 2 8.11238 2H5.4633C3.16973 2 2 3.15826 2 5.41743V8.06652C2 8.68578 2.34404 9.02982 2.94037 9.02982ZM11.1514 13.9725H11.2546C12.3555 13.9725 12.9518 13.3762 12.9518 12.2753V8.8578C12.9518 8.43348 12.6652 8.14679 12.2408 8.14679C11.7936 8.14679 11.5183 8.43348 11.5183 8.8578V12.3555C11.5183 12.4587 11.4495 12.5161 11.3463 12.5161H10.9908C10.5894 12.5161 10.2798 12.8257 10.2798 13.2271C10.2798 13.6972 10.6009 13.9725 11.1514 13.9725ZM8.11238 11.4266C8.63991 11.4266 9.00688 11.0597 9.00688 10.5321V9.05275C9.00688 8.52523 8.63991 8.15826 8.11238 8.15826C7.6078 8.15826 7.24082 8.5367 7.24082 9.05275V10.5321C7.24082 11.0597 7.6078 11.4266 8.11238 11.4266ZM15.8991 11.4266C16.4037 11.4266 16.7821 11.0597 16.7821 10.5321V9.05275C16.7821 8.5367 16.4037 8.15826 15.8991 8.15826C15.3716 8.15826 15.0046 8.52523 15.0046 9.05275V10.5321C15.0046 11.0597 15.3716 11.4266 15.8991 11.4266ZM11.9656 17.2867C13.2729 17.2867 14.6032 16.7247 15.5436 15.7844C15.6812 15.6582 15.75 15.4747 15.75 15.2454C15.75 14.8326 15.4289 14.5344 15.0275 14.5344C14.8097 14.5344 14.6606 14.6032 14.4542 14.8326C13.8692 15.4403 12.9174 15.8647 11.9656 15.8647C11.0482 15.8647 10.1078 15.4633 9.47707 14.8326C9.30505 14.6606 9.15597 14.5344 8.8922 14.5344C8.49083 14.5344 8.16972 14.8326 8.16972 15.2454C8.16972 15.4403 8.23853 15.6124 8.38762 15.7729C9.25917 16.7707 10.6353 17.2867 11.9656 17.2867ZM5.4633 22H8.11238C8.72018 22 9.06422 21.6674 9.06422 21.0597C9.06422 20.4518 8.72018 20.1192 8.11238 20.1192H5.53211C4.47707 20.1192 3.8922 19.5573 3.8922 18.4564V15.9335C3.8922 15.3257 3.54817 14.9817 2.94037 14.9817C2.33257 14.9817 2 15.3257 2 15.9335V18.5826C2 20.8532 3.16973 22 5.4633 22ZM15.8991 22H18.5482C20.8417 22 22 20.8532 22 18.5826V15.9335C22 15.3257 21.6674 14.9817 21.0597 14.9817C20.4403 14.9817 20.1192 15.3257 20.1192 15.9335V18.4564C20.1192 19.5573 19.5229 20.1192 18.4793 20.1192H15.8991C15.2798 20.1192 14.9357 20.4518 14.9357 21.0597C14.9357 21.6674 15.2798 22 15.8991 22Z" fill="currentColor"/>
</svg>
