<svg width="1em" height="1em" viewBox="0 0 16 16" fill="none" xmlns="http://www.w3.org/2000/svg">
<path d="M9.66667 1.33334C10.8633 1.33334 11.8333 2.30338 11.8333 3.5C11.8333 3.9297 11.7083 4.33019 11.4925 4.66703L13.1667 4.66667C13.6269 4.66667 14 5.03976 14 5.5V7.83334C14 8.23627 13.714 8.5724 13.3339 8.64987L13.3333 12.5C13.3333 13.6553 12.429 14.5995 11.2896 14.6633L11.1667 14.6667H4.83333C3.67798 14.6667 2.73383 13.7623 2.67009 12.6229L2.66667 12.5L2.6667 8.65C2.28631 8.5728 2 8.23654 2 7.83334V5.5C2 5.03976 2.37309 4.66667 2.83333 4.66667L4.50751 4.66703C4.29175 4.33019 4.16667 3.9297 4.16667 3.5C4.16667 2.30338 5.13671 1.33334 6.33333 1.33334C7.00367 1.33334 7.60293 1.63778 8.0004 2.11594C8.39707 1.63778 8.99633 1.33334 9.66667 1.33334ZM7.5 8.666H3.66667V12.5C3.66667 13.1121 4.13807 13.6141 4.73765 13.6628L4.83333 13.6667H7.5V8.666ZM12.3333 8.666H8.5V13.6667H11.1667C11.7788 13.6667 12.2808 13.1953 12.3295 12.5957L12.3333 12.5V8.666ZM7.5 5.66667H3V7.66667L7.5 7.666V5.66667ZM13 7.66667V5.66667H8.5V7.666L13 7.66667ZM9.66667 2.33334C9.02233 2.33334 8.5 2.85567 8.5 3.5V4.666H9.68267L9.76233 4.6628C10.3619 4.61413 10.8333 4.11212 10.8333 3.5C10.8333 2.85567 10.311 2.33334 9.66667 2.33334ZM6.33333 2.33334C5.689 2.33334 5.16667 2.85567 5.16667 3.5C5.16667 4.11212 5.63807 4.61413 6.23765 4.6628L6.31733 4.666H7.5V3.5L7.49613 3.40432C7.44747 2.80474 6.94547 2.33334 6.33333 2.33334Z" fill="currentColor"/>
</svg>
