<svg width="1em" height="1em" viewBox="0 0 24 24" fill="none" xmlns="http://www.w3.org/2000/svg">
<path fill-rule="evenodd" clip-rule="evenodd" d="M8.41893 5.51899C7.75086 6.18707 6.84475 6.56239 5.89994 6.56239V7.03738C6.84475 7.03738 7.75086 7.4127 8.41893 8.08078C9.08701 8.74886 9.46233 9.65496 9.46233 10.5998H13.7372C13.7372 9.65496 14.1125 8.74886 14.7806 8.08078C15.4487 7.4127 16.3548 7.03738 17.2996 7.03738V6.56239C16.3548 6.56239 15.4487 6.18707 14.7806 5.51899C14.1125 4.85091 13.7372 3.9448 13.7372 3H9.46233C9.46233 3.9448 9.08701 4.85091 8.41893 5.51899ZM12.2715 7.47162C12.0933 7.64977 11.8517 7.74986 11.5998 7.74986C11.3478 7.74986 11.1062 7.64977 10.928 7.47162C10.7499 7.29346 10.6498 7.05183 10.6498 6.79988C10.6498 6.54794 10.7499 6.30631 10.928 6.12815C11.1062 5.95 11.3478 5.84991 11.5998 5.84991C11.8517 5.84991 12.0933 5.95 12.2715 6.12815C12.4497 6.30631 12.5497 6.54794 12.5497 6.79988C12.5497 7.05183 12.4497 7.29346 12.2715 7.47162Z" fill="currentColor"/>
<path d="M5.89994 21.4181H6.14693C7.10971 21.4187 8.06995 21.5177 9.013 21.7116C10.6659 22.0517 12.4063 22.0935 14.0763 21.8237C14.9 21.6898 15.7093 21.4865 16.4427 21.1321C17.1039 20.8129 17.9142 20.3626 18.4586 19.8592C19.0019 19.3557 19.5681 18.5321 19.97 17.888C20.3148 17.3351 20.1476 16.6578 19.6033 16.2464C19.2969 16.0235 18.9277 15.9035 18.5488 15.9035C18.1699 15.9035 17.8008 16.0235 17.4943 16.2464L15.7768 17.5431C15.1118 18.0457 14.3851 18.5093 13.5197 18.647C13.4152 18.6632 13.3059 18.6784 13.1919 18.6917C13.344 18.6505 13.4834 18.5722 13.5976 18.4637C13.7407 18.3398 13.8576 18.1886 13.9413 18.0188C14.0251 17.8491 14.074 17.6642 14.0851 17.4753C14.0963 17.2863 14.0695 17.0971 14.0063 16.9186C13.9431 16.7402 13.8448 16.5762 13.7173 16.4364C13.5938 16.2987 13.4494 16.1828 13.2898 16.0868C10.9082 14.6666 7.33915 15.4893 4.82552 16.9513C4.44364 17.1736 4.25269 17.2847 4.12635 17.5042C4 17.7246 4 17.9706 4 18.4627V19.5191C4 20.4149 4 20.8633 4.27834 21.1397C4.55668 21.4181 5.00412 21.4181 5.89994 21.4181Z" fill="currentColor"/>
<path d="M5.92939 5.13746C5.97784 4.38604 6.10799 3.90535 6.45663 3.55671C6.80526 3.20807 7.2869 3.07793 8.03738 3.02853C8.03 3.58539 7.80558 4.11739 7.41186 4.51128C7.01815 4.90517 6.48626 5.12984 5.92939 5.13746Z" fill="currentColor"/>
<path d="M15.1622 3.02948C15.9136 3.07793 16.3943 3.20807 16.7429 3.55671C17.0916 3.90535 17.2217 4.38699 17.2711 5.13746C16.7142 5.13009 16.1822 4.90566 15.7883 4.51195C15.3945 4.11824 15.1698 3.58634 15.1622 3.02948Z" fill="currentColor"/>
<path d="M15.1622 10.5703C15.9136 10.5219 16.3943 10.3918 16.7429 10.0431C17.0916 9.69447 17.2217 9.21284 17.2711 8.46236C16.7142 8.46974 16.1822 8.69416 15.7883 9.08787C15.3945 9.48159 15.1698 10.0135 15.1622 10.5703Z" fill="currentColor"/>
<path d="M8.03738 10.5703C7.28595 10.5219 6.80526 10.3918 6.45663 10.0431C6.10799 9.69447 5.97784 9.21284 5.92844 8.46236C6.48531 8.46974 7.01731 8.69416 7.4112 9.08787C7.80508 9.48159 8.02975 10.0135 8.03738 10.5703Z" fill="currentColor"/>
</svg>
