<svg width="1em" height="1em" viewBox="0 0 24 24" fill="none" xmlns="http://www.w3.org/2000/svg">
<path fill-rule="evenodd" clip-rule="evenodd" d="M13.2647 4.39028H8.95501C8.81834 5.058 8.48857 5.67088 8.00663 6.15282C7.52469 6.63476 6.91181 6.96453 6.24409 7.1012C6.24382 7.30201 6.24382 7.50282 6.24409 7.70363C6.91181 7.8403 7.52469 8.17007 8.00663 8.65201C8.48857 9.13395 8.81834 9.74683 8.95501 10.4146H13.2647C13.4014 9.74683 13.7311 9.13395 14.2131 8.65201C14.695 8.17007 15.3079 7.8403 15.9756 7.70363C15.9758 7.50282 15.9758 7.30201 15.9756 7.1012C15.3079 6.96453 14.695 6.63476 14.2131 6.15282C13.7311 5.67088 13.4014 5.058 13.2647 4.39028ZM13.8254 3.00284C13.5705 3.00006 13.2999 3.00006 13.0117 3.00006H9.20803C8.92072 3.00006 8.64916 3.00006 8.39522 3.00284C8.3446 2.99828 8.29364 2.99921 8.24322 3.00562C7.8243 3.01304 7.45265 3.03064 7.13012 3.0742C6.54808 3.15206 6.02258 3.32444 5.60088 3.74614C5.17825 4.16877 5.00587 4.69427 4.92802 5.27538C4.88446 5.59884 4.86685 5.97049 4.85943 6.38941C4.85308 6.43952 4.85215 6.49017 4.85665 6.54048C4.85387 6.79535 4.85387 7.06691 4.85387 7.35422V7.45061C4.85387 7.73792 4.85387 8.00948 4.85665 8.26435C4.85216 8.31466 4.85309 8.36531 4.85943 8.41542C4.86685 8.83527 4.88446 9.20599 4.92802 9.52852C5.00587 10.1106 5.17825 10.6361 5.60088 11.0578C6.02258 11.4804 6.54808 11.6528 7.13012 11.7306C7.45265 11.7742 7.8243 11.7918 8.24322 11.7992C8.29363 11.8057 8.3446 11.8066 8.39522 11.802C8.64916 11.8048 8.92072 11.8048 9.20803 11.8048H13.0117C13.299 11.8048 13.5705 11.8048 13.8254 11.802C13.8757 11.8066 13.9264 11.8057 13.9765 11.7992C14.3963 11.7918 14.768 11.7742 15.0896 11.7306C15.6716 11.6528 16.1971 11.4804 16.6188 11.0578C17.0414 10.6361 17.2138 10.1106 17.2917 9.52852C17.3356 9.15908 17.3585 8.78745 17.3603 8.41542C17.3666 8.3653 17.3675 8.31466 17.363 8.26435C17.3658 8.00948 17.3658 7.73792 17.3658 7.45061V7.35422C17.3658 7.06691 17.3658 6.79535 17.363 6.54048C17.3676 6.49017 17.3667 6.43951 17.3603 6.38941C17.3583 6.01738 17.3354 5.64576 17.2917 5.27631C17.2138 4.69427 17.0414 4.16877 16.6197 3.74707C16.1971 3.32444 15.6716 3.15206 15.0905 3.0742C14.7207 3.03039 14.3488 3.00749 13.9765 3.00562C13.9264 2.99925 13.8757 2.99832 13.8254 3.00284ZM14.7189 4.43106C14.8238 4.70834 14.9865 4.96014 15.1961 5.16978C15.4057 5.37941 15.6576 5.54209 15.9348 5.64703C15.929 5.58511 15.9219 5.52331 15.9135 5.46167C15.857 5.03348 15.7569 4.84998 15.6355 4.72949C15.515 4.609 15.3324 4.50984 14.9051 4.45145C14.8435 4.4434 14.7817 4.4366 14.7198 4.43106M15.9358 9.1578C15.6585 9.26273 15.4067 9.42541 15.197 9.63505C14.9874 9.84469 14.8247 10.0965 14.7198 10.3738C14.7847 10.3682 14.8468 10.3608 14.9051 10.3534C15.3333 10.295 15.5168 10.1958 15.6373 10.0753C15.7578 9.95485 15.8579 9.77135 15.9154 9.34316C15.9228 9.28477 15.9302 9.22267 15.9358 9.1578ZM7.50177 10.3738C7.39683 10.0965 7.23415 9.84469 7.02451 9.63505C6.81488 9.42541 6.56307 9.26273 6.28579 9.1578C6.29228 9.22267 6.29877 9.28477 6.30711 9.34316C6.36457 9.77135 6.46374 9.95485 6.58515 10.0753C6.70564 10.1958 6.88822 10.295 7.31548 10.3534C7.3748 10.3608 7.43689 10.3682 7.50177 10.3738ZM6.28579 5.64703C6.56307 5.54209 6.81488 5.37941 7.02451 5.16978C7.23415 4.96014 7.39683 4.70834 7.50177 4.43106C7.43689 4.43662 7.3748 4.44403 7.31641 4.45237C6.88822 4.50984 6.70471 4.609 6.58423 4.73042C6.46374 4.8509 6.36457 5.03348 6.30618 5.46074L6.28579 5.64703ZM11.1098 7.17071C11.0484 7.17071 10.9895 7.19512 10.946 7.23858C10.9026 7.28203 10.8781 7.34096 10.8781 7.40241C10.8781 7.46387 10.9026 7.5228 10.946 7.56625C10.9895 7.60971 11.0484 7.63412 11.1098 7.63412C11.1713 7.63412 11.2302 7.60971 11.2737 7.56625C11.3171 7.5228 11.3416 7.46387 11.3416 7.40241C11.3416 7.34096 11.3171 7.28203 11.2737 7.23858C11.2302 7.19512 11.1713 7.17071 11.1098 7.17071ZM9.48793 7.40241C9.48793 6.97225 9.65881 6.55971 9.96298 6.25554C10.2671 5.95137 10.6797 5.78049 11.1098 5.78049C11.54 5.78049 11.9526 5.95137 12.2567 6.25554C12.5609 6.55971 12.7318 6.97225 12.7318 7.40241C12.7318 7.83257 12.5609 8.24512 12.2567 8.54929C11.9526 8.85346 11.54 9.02433 11.1098 9.02433C10.6797 9.02433 10.2671 8.85346 9.96298 8.54929C9.65881 8.24512 9.48793 7.83257 9.48793 7.40241ZM8.03654 14.3053C9.76597 13.9707 11.6168 14.0458 13.1155 14.9392C13.3249 15.0644 13.5233 15.221 13.6947 15.4138C14.0432 15.8058 14.223 16.2915 14.2313 16.779C14.4084 16.665 14.5863 16.538 14.7661 16.4018L16.4418 15.1367C16.8614 14.8281 17.3686 14.6618 17.8895 14.6618C18.4103 14.6618 18.9175 14.8281 19.3372 15.1367C20.111 15.7205 20.4206 16.7706 19.8654 17.6604C19.4715 18.2915 18.8784 19.1655 18.2741 19.7253C17.6624 20.2907 16.794 20.767 16.1369 21.084C15.338 21.4696 14.476 21.6827 13.6373 21.818C11.9227 22.0961 10.1395 22.0535 8.44526 21.704C7.57158 21.5242 6.68195 21.4333 5.78995 21.4325H3.69536C3.511 21.4325 3.3342 21.3593 3.20384 21.2289C3.07348 21.0985 3.00025 20.9217 3.00025 20.7374C3.00025 20.553 3.07348 20.3762 3.20384 20.2459C3.3342 20.1155 3.511 20.0423 3.69536 20.0423H5.78995C6.77422 20.0423 7.76869 20.1451 8.72609 20.3426C10.2703 20.6594 11.8591 20.6943 13.4158 20.4454C14.1832 20.3212 14.9005 20.1368 15.5326 19.8319C16.1656 19.526 16.8774 19.1238 17.3288 18.7058C17.7857 18.2823 18.2963 17.5491 18.6865 16.9245C18.8042 16.7354 18.7876 16.4639 18.4993 16.2461C18.1564 15.9865 17.6216 15.9865 17.2796 16.2461L15.6049 17.5111C14.9357 18.0163 14.1127 18.5566 13.0923 18.7197C12.9854 18.7366 12.8782 18.7515 12.7707 18.7642C12.1213 18.8391 11.4658 18.8453 10.8151 18.7827C10.7226 18.7763 10.6323 18.7515 10.5496 18.7097C10.4668 18.6679 10.3933 18.61 10.3333 18.5393C10.2732 18.4686 10.228 18.3867 10.2001 18.2982C10.1722 18.2098 10.1623 18.1167 10.171 18.0244C10.1796 17.9321 10.2067 17.8424 10.2505 17.7607C10.2943 17.679 10.354 17.6069 10.4262 17.5486C10.4983 17.4904 10.5813 17.4471 10.6704 17.4214C10.7595 17.3957 10.8528 17.3881 10.9449 17.399C11.459 17.4489 11.9768 17.448 12.4908 17.3962L12.5186 17.3934C12.6051 17.3398 12.6786 17.2676 12.7338 17.1821C12.7889 17.0966 12.8245 16.9999 12.8378 16.899C12.8511 16.7981 12.8418 16.6955 12.8107 16.5986C12.7795 16.5017 12.7272 16.413 12.6576 16.3387C12.5838 16.2574 12.4978 16.188 12.4028 16.133C11.3082 15.4796 9.84568 15.3711 8.30068 15.6696C6.7916 15.9732 5.361 16.5836 4.09759 17.463C4.02311 17.5158 3.93894 17.5534 3.84991 17.5737C3.76088 17.594 3.66872 17.5966 3.5787 17.5812C3.48868 17.5659 3.40256 17.533 3.32525 17.4844C3.24795 17.4358 3.18097 17.3725 3.12815 17.298C3.07532 17.2235 3.03769 17.1393 3.01739 17.0503C2.9971 16.9613 2.99454 16.8691 3.00985 16.7791C3.02517 16.6891 3.05807 16.6029 3.10668 16.5256C3.15528 16.4483 3.21863 16.3814 3.29312 16.3285C4.71823 15.335 6.33305 14.6462 8.03654 14.3053Z" fill="currentColor"/>
</svg>
