<svg width="1em" height="1em" viewBox="0 0 25 24" fill="none" xmlns="http://www.w3.org/2000/svg">
<path d="M12.65 16.3423C13.2192 16.3423 13.7301 16.2003 14.1827 15.9163C14.6352 15.6324 14.8615 15.1769 14.8615 14.55C14.8615 14.0282 14.667 13.6125 14.2779 13.3029C13.8888 12.9932 13.1628 12.6436 12.1 12.2538C11.0718 11.8846 10.3301 11.4711 9.87498 11.0134C9.41985 10.5557 9.19228 9.95126 9.19228 9.19998C9.19228 8.55511 9.42497 7.96473 9.89035 7.42883C10.3557 6.89293 11.0064 6.55126 11.8423 6.40383V5.87498C11.8423 5.69293 11.9105 5.53363 12.0471 5.3971C12.1836 5.26057 12.3429 5.1923 12.525 5.1923C12.707 5.1923 12.8663 5.26057 13.0028 5.3971C13.1394 5.53363 13.2076 5.69293 13.2076 5.87498V6.40383C13.6781 6.43716 14.116 6.59004 14.5211 6.86248C14.9262 7.13491 15.257 7.47305 15.5134 7.8769C15.6044 8.01537 15.6128 8.16312 15.5384 8.32015C15.464 8.4772 15.339 8.58778 15.1634 8.65188C14.998 8.71598 14.831 8.72431 14.6625 8.67688C14.4939 8.62944 14.3557 8.53329 14.2481 8.38843C14.0557 8.15638 13.8202 7.96823 13.5413 7.824C13.2625 7.67977 12.932 7.60765 12.55 7.60765C11.9282 7.60765 11.4407 7.75509 11.0875 8.04998C10.7342 8.34484 10.5576 8.72818 10.5576 9.19998C10.5576 9.67178 10.7301 10.0391 11.0749 10.3019C11.4198 10.5647 12.1179 10.8756 13.1692 11.2346C14.3692 11.6679 15.1756 12.1538 15.5884 12.6923C16.0012 13.2308 16.2076 13.85 16.2076 14.55C16.2076 15.0269 16.1195 15.4455 15.9432 15.8058C15.7669 16.166 15.5365 16.4689 15.2519 16.7144C14.9672 16.9599 14.6432 17.1538 14.2798 17.2961C13.9163 17.4384 13.5422 17.5384 13.1576 17.5961V18.125C13.1576 18.307 13.0894 18.4663 12.9528 18.6029C12.8163 18.7394 12.657 18.8077 12.475 18.8077C12.2929 18.8077 12.1336 18.7394 11.9971 18.6029C11.8605 18.4663 11.7923 18.307 11.7923 18.125V17.5461C11.1782 17.4128 10.6461 17.174 10.1961 16.8298C9.74613 16.4855 9.38139 16.0365 9.1019 15.4827C9.02112 15.307 9.02048 15.1333 9.09998 14.9615C9.17946 14.7897 9.30702 14.6718 9.48265 14.6077C9.64804 14.5436 9.81662 14.5445 9.9884 14.6106C10.1602 14.6766 10.2916 14.7872 10.3826 14.9423C10.6416 15.4013 10.9663 15.7493 11.3567 15.9865C11.7471 16.2237 12.1782 16.3423 12.65 16.3423ZM12.5 22.5C10.55 22.5 8.7804 22.0173 7.19128 21.0519C5.60218 20.0865 4.35571 18.7929 3.45188 17.1711V19.4038C3.45188 19.6166 3.38009 19.7948 3.2365 19.9384C3.0929 20.082 2.9147 20.1538 2.70188 20.1538C2.48908 20.1538 2.31088 20.082 2.16728 19.9384C2.0237 19.7948 1.9519 19.6166 1.9519 19.4038V15.5576C1.9519 15.2999 2.03812 15.0849 2.21055 14.9125C2.38299 14.74 2.59805 14.6538 2.85575 14.6538H6.7019C6.9147 14.6538 7.0929 14.7256 7.2365 14.8692C7.38009 15.0128 7.45188 15.191 7.45188 15.4038C7.45188 15.6166 7.38009 15.7948 7.2365 15.9384C7.0929 16.082 6.9147 16.1538 6.7019 16.1538H4.61145C5.33454 17.6102 6.40313 18.782 7.81723 19.6692C9.23135 20.5564 10.7923 21 12.5 21C14.8243 21 16.8307 20.2327 18.5192 18.6981C20.2076 17.1634 21.1814 15.2481 21.4403 12.9519C21.4673 12.7429 21.5551 12.5737 21.7038 12.4442C21.8525 12.3147 22.0313 12.25 22.2403 12.25C22.4531 12.25 22.6323 12.3215 22.7778 12.4644C22.9233 12.6074 22.9826 12.7782 22.9557 12.9769C22.8326 14.3166 22.4756 15.5637 21.8845 16.7182C21.2935 17.8727 20.5304 18.8785 19.5951 19.7355C18.6599 20.5926 17.5868 21.2676 16.3759 21.7605C15.165 22.2535 13.873 22.5 12.5 22.5ZM12.5 2.99998C10.2141 2.99998 8.21886 3.75607 6.51438 5.26825C4.8099 6.78042 3.82496 8.70381 3.55958 11.0384C3.53265 11.2474 3.44482 11.4182 3.2961 11.5509C3.1474 11.6836 2.96857 11.75 2.7596 11.75C2.54037 11.75 2.3596 11.6785 2.2173 11.5355C2.07499 11.3926 2.0173 11.2186 2.04423 11.0134C2.18013 9.64804 2.5484 8.38651 3.14903 7.22883C3.74966 6.07114 4.51761 5.06858 5.45288 4.22115C6.38813 3.37372 7.458 2.70833 8.66248 2.225C9.86696 1.74167 11.1461 1.5 12.5 1.5C14.4307 1.5 16.2003 1.9843 17.8086 2.9529C19.417 3.9215 20.6634 5.22633 21.548 6.86738V4.59618C21.548 4.38336 21.6198 4.20516 21.7634 4.06158C21.907 3.91799 22.0852 3.8462 22.298 3.8462C22.5108 3.8462 22.689 3.91799 22.8326 4.06158C22.9762 4.20516 23.048 4.38336 23.048 4.59618V8.44233C23.048 8.70001 22.9618 8.91507 22.7894 9.0875C22.6169 9.25993 22.4019 9.34615 22.1442 9.34615H18.298C18.0852 9.34615 17.907 9.27436 17.7634 9.13078C17.6198 8.98719 17.548 8.80899 17.548 8.59618C17.548 8.38336 17.6198 8.20516 17.7634 8.06158C17.907 7.91799 18.0852 7.8462 18.298 7.8462H20.3885C19.6846 6.4154 18.624 5.25 17.2067 4.35C15.7894 3.44998 14.2205 2.99998 12.5 2.99998Z" fill="currentColor"/>
</svg>
