<svg width="1em" height="1em" viewBox="0 0 25 24" fill="none" xmlns="http://www.w3.org/2000/svg">
<path d="M10.8828 2.53189C11.7207 1.82531 12.9459 1.82531 13.7838 2.5319L20.5338 8.224C21.0407 8.65152 21.3333 9.2809 21.3333 9.94406V19.2539C21.3333 20.2204 20.5498 21.0039 19.5833 21.0039H16.0833C15.1168 21.0039 14.3333 20.2204 14.3333 19.2539V14.2468C14.3333 14.1088 14.2214 13.9968 14.0833 13.9968H10.5833C10.4452 13.9968 10.3333 14.1088 10.3333 14.2468V19.2539C10.3333 20.2204 9.54983 21.0039 8.58333 21.0039H5.08333C4.11683 21.0039 3.33333 20.2204 3.33333 19.2539V9.94406C3.33333 9.2809 3.62588 8.65152 4.13285 8.224L10.8828 2.53189ZM12.8168 3.6786C12.5375 3.44307 12.1291 3.44307 11.8498 3.6786L5.09984 9.37071C4.93085 9.51321 4.83333 9.72301 4.83333 9.94406V19.2539C4.83333 19.392 4.94526 19.5039 5.08333 19.5039H8.58333C8.7214 19.5039 8.83332 19.392 8.83332 19.2539V14.2468C8.83332 13.2803 9.61683 12.4968 10.5833 12.4968H14.0833C15.0498 12.4968 15.8333 13.2803 15.8333 14.2468V19.2539C15.8333 19.392 15.9452 19.5039 16.0833 19.5039H19.5833C19.7214 19.5039 19.8333 19.392 19.8333 19.2539V9.94406C19.8333 9.72301 19.7358 9.51321 19.5668 9.37071L12.8168 3.6786Z" fill="currentColor"/>
</svg>
