<svg width="1em" height="1em" viewBox="0 0 24 24" fill="none" xmlns="http://www.w3.org/2000/svg">
<path d="M7 17V21C7 21.2652 6.89464 21.5196 6.70711 21.7071C6.51957 21.8946 6.26522 22 6 22H3C2.73478 22 2.48043 21.8946 2.29289 21.7071C2.10536 21.5196 2 21.2652 2 21V17C2 16.7348 2.10536 16.4804 2.29289 16.2929C2.48043 16.1054 2.73478 16 3 16H6C6.26522 16 6.51957 16.1054 6.70711 16.2929C6.89464 16.4804 7 16.7348 7 17ZM14 14H11C10.7348 14 10.4804 14.1054 10.2929 14.2929C10.1054 14.4804 10 14.7348 10 15V21C10 21.2652 10.1054 21.5196 10.2929 21.7071C10.4804 21.8946 10.7348 22 11 22H14C14.2652 22 14.5196 21.8946 14.7071 21.7071C14.8946 21.5196 15 21.2652 15 21V15C15 14.7348 14.8946 14.4804 14.7071 14.2929C14.5196 14.1054 14.2652 14 14 14ZM22 10H19C18.7348 10 18.4804 10.1054 18.2929 10.2929C18.1054 10.4804 18 10.7348 18 11V21C18 21.2652 18.1054 21.5196 18.2929 21.7071C18.4804 21.8946 18.7348 22 19 22H22C22.2652 22 22.5196 21.8946 22.7071 21.7071C22.8946 21.5196 23 21.2652 23 21V11C23 10.7348 22.8946 10.4804 22.7071 10.2929C22.5196 10.1054 22.2652 10 22 10ZM20 7.24C20.0315 7.37132 20.0886 7.49515 20.168 7.60441C20.2473 7.71368 20.3475 7.80624 20.4626 7.87681C20.5777 7.94738 20.7057 7.99459 20.839 8.01572C20.9724 8.03686 21.1087 8.03152 21.24 8C21.3713 7.96848 21.4951 7.91141 21.6044 7.83204C21.7137 7.75266 21.8062 7.65254 21.8768 7.5374C21.9474 7.42226 21.9946 7.29434 22.0157 7.16095C22.0369 7.02757 22.0315 6.89132 22 6.76L21 2.76V2.67C20.9681 2.58619 20.9279 2.50578 20.88 2.43L20.8 2.35C20.7442 2.28546 20.6803 2.22833 20.61 2.18H20.54C20.441 2.0962 20.325 2.03479 20.2 2H20.06H16C15.7348 2 15.4804 2.10536 15.2929 2.29289C15.1054 2.48043 15 2.73478 15 3C15 3.26522 15.1054 3.51957 15.2929 3.70711C15.4804 3.89464 15.7348 4 16 4H18.13C13.8 9.69 5.9 11 3 11C2.73478 11 2.48043 11.1054 2.29289 11.2929C2.10536 11.4804 2 11.7348 2 12C2 12.2652 2.10536 12.5196 2.29289 12.7071C2.48043 12.8946 2.73478 13 3 13C6.16 13 14.71 11.56 19.57 5.39L20 7.24Z" fill="currentColor"/>
</svg>
