<svg width="1em" height="1em" viewBox="0 0 32 32" fill="none" xmlns="http://www.w3.org/2000/svg">
<path d="M16 2.66406C23.3649 2.66406 29.3353 8.63452 29.3353 15.9995C29.3353 23.3644 23.3649 29.3348 16 29.3348C8.635 29.3348 2.66455 23.3644 2.66455 15.9995C2.66455 8.63452 8.635 2.66406 16 2.66406ZM16 4.66406C9.73958 4.66406 4.66455 9.73909 4.66455 15.9995C4.66455 22.2599 9.73958 27.3348 16 27.3348C22.2604 27.3348 27.3353 22.2599 27.3353 15.9995C27.3353 9.73909 22.2604 4.66406 16 4.66406ZM15.995 13.9981C16.5013 13.9979 16.92 14.3737 16.9865 14.8619L16.9957 14.9975L17.0005 22.3329C17.0009 22.8852 16.5534 23.3333 16.0012 23.3336C15.4949 23.334 15.0762 22.958 15.0097 22.47L15.0005 22.3343L14.9957 14.9988C14.9954 14.4465 15.4428 13.9985 15.995 13.9981ZM16.0005 9.33448C16.736 9.33448 17.3321 9.93064 17.3321 10.666C17.3321 11.4014 16.736 11.9976 16.0005 11.9976C15.2652 11.9976 14.669 11.4014 14.669 10.666C14.669 9.93064 15.2652 9.33448 16.0005 9.33448Z" fill="currentColor"/>
</svg>
