<svg width="1em" height="1em" viewBox="0 0 20 20" fill="none" xmlns="http://www.w3.org/2000/svg">
<path d="M10 1.66406C13.375 1.66406 16.1306 4.32635 16.2465 7.70495L16.25 7.91406V11.3282L17.4 13.9582C17.4576 14.0898 17.4873 14.2319 17.4873 14.3756C17.4873 14.9508 17.021 15.4172 16.4456 15.4172L12.5 15.4185C12.5 16.7992 11.3808 17.9185 10 17.9185C8.66863 17.9185 7.58034 16.8777 7.50429 15.5653L7.49968 15.4166L3.56244 15.4172C3.41966 15.4172 3.2784 15.3878 3.14744 15.331C2.61977 15.1017 2.37781 14.4882 2.60701 13.9606L3.75005 11.329V7.91398C3.75055 4.45165 6.54346 1.66406 10 1.66406ZM11.2497 15.4166L8.75004 15.4185C8.75004 16.1088 9.30971 16.6685 10 16.6685C10.6498 16.6685 11.1838 16.1727 11.2443 15.5388L11.2497 15.4166ZM10 2.91406C7.23325 2.91406 5.00045 5.14261 5.00005 7.91406V11.5887L3.88007 14.1672H16.1271L15 11.5896L15.0001 7.92478L14.997 7.73711C14.9045 5.04255 12.7014 2.91406 10 2.91406Z" fill="currentColor"/>
</svg>
