<svg width="1em" height="1em" viewBox="0 0 25 24" fill="none" xmlns="http://www.w3.org/2000/svg">
<path d="M12.5 18L8.3 19.8C7.63333 20.0833 7 20.0292 6.4 19.6375C5.8 19.2458 5.5 18.6917 5.5 17.975V5C5.5 4.45 5.69583 3.97917 6.0875 3.5875C6.47917 3.19583 6.95 3 7.5 3H17.5C18.05 3 18.5208 3.19583 18.9125 3.5875C19.3042 3.97917 19.5 4.45 19.5 5V17.975C19.5 18.6917 19.2 19.2458 18.6 19.6375C18 20.0292 17.3667 20.0833 16.7 19.8L12.5 18ZM12.5 15.8L17.5 17.95V5H7.5V17.95L12.5 15.8ZM12.5 5H7.5H17.5H12.5Z" fill="currentColor"/>
</svg>
