<svg width="1em" height="1em" viewBox="0 0 24 24" fill="none" xmlns="http://www.w3.org/2000/svg">
<path fill-rule="evenodd" clip-rule="evenodd" d="M4.00111 11.3392V4.17361C4.00111 3.27012 4.35794 2.57538 5.19185 2.19795C5.49132 2.07207 5.81337 2.00879 6.1382 2.01202C9.15874 1.99866 12.1793 1.99644 15.1998 2.00534C16.4879 2.00534 17.3319 2.8604 17.3336 4.15524C17.3362 6.54413 17.3362 8.93265 17.3336 11.3208C17.3336 11.4706 17.3731 11.534 17.5228 11.5768C21.0806 12.5989 22.5023 16.9939 20.2238 19.9143C18.3635 22.2991 15.0123 22.6977 12.663 20.805C12.5525 20.7123 12.4113 20.6642 12.2672 20.6702C11.2499 20.6722 10.2327 20.6722 9.21552 20.6722H9.21287C8.19656 20.6722 7.18025 20.6722 6.16381 20.6741C5.35106 20.6741 4.70865 20.3708 4.27834 19.6654C4.05567 19.303 4 18.9005 4 18.4847C4.00111 16.1025 4.00148 13.7206 4.00111 11.3392ZM12.3539 12.5655C12.2763 12.5097 12.1899 12.4476 12.1297 12.3657C11.8325 11.961 12.1036 11.3882 12.6218 11.3536C13.085 11.3225 13.5515 11.3358 14.0163 11.3497C14.0949 11.3519 14.1718 11.385 14.2494 11.4183C14.2944 11.4376 14.3396 11.457 14.3854 11.4706L14.4063 11.4768L14.4227 11.4818C14.4971 11.5046 14.575 11.5285 14.6465 11.5189C14.8448 11.4923 15.0422 11.4594 15.2395 11.4263C15.3839 11.4022 15.5283 11.378 15.673 11.3564C15.7459 11.3457 15.8202 11.3429 15.8969 11.34C15.9314 11.3387 15.9664 11.3373 16.002 11.3353V11.1426V4.08175C16.002 3.59021 15.7493 3.33748 15.2594 3.33748H6.07418C5.58542 3.33748 5.33603 3.59076 5.33603 4.08566V18.5827C5.33603 19.0898 5.58319 19.3381 6.0881 19.3381H11.1706C11.2169 19.3381 11.2632 19.3353 11.3031 19.3328C11.3193 19.3319 11.3345 19.331 11.3482 19.3303C11.3122 19.2359 11.2768 19.1422 11.2415 19.049C11.1199 18.7274 11.0006 18.4121 10.8733 18.1C10.8538 18.0528 10.762 18.012 10.7002 18.0093C10.5943 18.0036 10.488 18.004 10.3818 18.0046C10.2305 18.0053 10.0794 18.006 9.9303 17.9887C9.81576 17.977 9.70633 17.9354 9.61308 17.8678C9.51985 17.8002 9.44611 17.7093 9.39932 17.604C9.35254 17.4988 9.33438 17.3831 9.34668 17.2687C9.35898 17.1542 9.4013 17.045 9.46937 16.9521C9.61745 16.7512 9.82676 16.6738 10.0689 16.6738H10.6456C10.7063 16.2146 10.7631 15.7831 10.8227 15.3305C10.7316 15.3305 10.6405 15.3327 10.5497 15.3348C10.3479 15.3396 10.1469 15.3444 9.94811 15.3256C9.83299 15.3175 9.72208 15.279 9.62667 15.214C9.53127 15.1491 9.4548 15.06 9.40505 14.9559C9.35531 14.8518 9.33407 14.7364 9.34352 14.6214C9.35296 14.5063 9.39274 14.3959 9.45879 14.3013C9.61132 14.0786 9.83455 14.0062 10.0917 14.0068C10.191 14.0068 10.2902 14.007 10.3895 14.0073H10.3906C10.6729 14.0079 10.9551 14.0085 11.2374 14.004C11.3047 14.004 11.3971 13.9823 11.4344 13.9356C11.7067 13.5926 11.9731 13.2481 12.2363 12.9079L12.447 12.6357C12.4196 12.6128 12.3875 12.5897 12.3539 12.5655ZM16.0064 20.6719C16.7978 20.6711 17.5712 20.4356 18.2287 19.9953C18.8862 19.5549 19.3984 18.9294 19.7002 18.1978C20.0022 17.4663 20.0804 16.6617 19.9248 15.8857C19.7694 15.1097 19.3873 14.3974 18.8268 13.8387C18.2664 13.2799 17.5529 12.9 16.7764 12.7468C15.9999 12.5938 15.1956 12.6744 14.465 12.9786C13.7344 13.2828 13.1105 13.7968 12.6721 14.4556C12.2337 15.1145 12.0006 15.8886 12.0023 16.6799C12.0011 17.2055 12.1041 17.7261 12.305 18.2117C12.506 18.6973 12.8011 19.1384 13.1734 19.5095C13.5456 19.8805 13.9875 20.1743 14.4738 20.3738C14.96 20.5733 15.4809 20.6746 16.0064 20.6719ZM8.02926 6.02778V5.38037C8.03482 4.96675 8.31372 4.6706 8.69115 4.67338C9.06858 4.67616 9.34024 4.97566 9.34524 5.38983C9.34706 5.51626 9.34651 5.64364 9.3459 5.78248C9.34558 5.85638 9.34524 5.93354 9.34524 6.01553C9.42121 6.01553 9.49606 6.01415 9.57004 6.01278C9.73512 6.00973 9.89587 6.00674 10.055 6.01943C10.3334 6.04114 10.5137 6.21037 10.6039 6.46478C10.6896 6.70804 10.6289 6.93183 10.4575 7.1211C10.3072 7.2881 10.1085 7.33709 9.8919 7.33653H8.37106C8.19515 7.33653 8.05208 7.41558 8.03705 7.58425C8.02759 7.70172 8.09884 7.83977 8.1701 7.94387C8.2035 7.99342 8.32095 7.99954 8.40112 7.99954C8.5022 8.00421 8.60361 8.00475 8.70496 8.0053C8.833 8.00598 8.96098 8.00667 9.08806 8.01568C9.89024 8.0797 10.5209 8.67089 10.6239 9.44356C10.6782 9.82866 10.5968 10.2207 10.3936 10.5523C10.1905 10.8839 9.8783 11.1345 9.51058 11.2611C9.38366 11.3056 9.333 11.3602 9.34358 11.4949C9.35197 11.6618 9.35197 11.829 9.34358 11.9959C9.33133 12.3756 9.04409 12.6673 8.68614 12.6678C8.51081 12.6645 8.34384 12.5923 8.22125 12.4669C8.09868 12.3415 8.03032 12.173 8.03093 11.9976C8.02765 11.8668 8.02866 11.7358 8.02975 11.5947C8.03033 11.5201 8.03093 11.4429 8.03093 11.3613H7.37683C7.24712 11.3659 7.11901 11.3315 7.00898 11.2627C6.89897 11.1938 6.81206 11.0936 6.75948 10.975C6.54794 10.5347 6.86468 10.0498 7.37182 10.0431C7.67249 10.0389 7.97335 10.0396 8.27428 10.0402C8.49426 10.0407 8.71441 10.0412 8.93441 10.0398C9.19327 10.0398 9.34302 9.88278 9.32075 9.65733C9.31656 9.56961 9.27799 9.48708 9.2134 9.42758C9.1488 9.36809 9.06338 9.33644 8.97561 9.33947C8.8842 9.33665 8.79253 9.33662 8.70083 9.33657C8.55635 9.33651 8.41178 9.33645 8.26807 9.32554C7.44252 9.26153 6.79844 8.65753 6.70937 7.87429C6.61697 7.06097 7.0868 6.34731 7.88786 6.08233C7.91226 6.07358 7.93664 6.06395 7.96301 6.05353C7.98357 6.04541 8.00535 6.03681 8.02926 6.02778ZM13.5643 6.00433C13.4949 6.00532 13.4255 6.0063 13.3561 6.0063C13.2787 6.0063 13.2014 6.00523 13.1242 6.00415C12.9797 6.00213 12.8356 6.00011 12.6931 6.00519C12.2884 6.02579 12.0106 6.30413 12.0134 6.67321C12.0134 7.03338 12.2878 7.31561 12.6814 7.32897C13.1186 7.34382 13.5554 7.34382 13.9918 7.32897C14.3815 7.31561 14.6571 7.04173 14.6598 6.67432C14.6626 6.30691 14.3837 6.02691 13.9801 6.0063C13.8417 6.00037 13.703 6.00235 13.5643 6.00433ZM13.5609 8.67087C13.6996 8.66901 13.8383 8.66716 13.9767 8.67272C14.3809 8.69277 14.6609 8.97055 14.6598 9.33796C14.6587 9.70537 14.3781 9.98649 13.9723 9.99873C13.5498 10.0115 13.1261 10.011 12.7036 9.99873C12.2978 9.9876 12.015 9.70926 12.0106 9.34353C12.0061 8.96721 12.2889 8.68831 12.7081 8.67106C12.851 8.66512 12.9943 8.6671 13.1377 8.66907C13.2094 8.67007 13.2811 8.67106 13.3527 8.67106V8.67272C13.4221 8.67272 13.4915 8.6718 13.5609 8.67087ZM8.09992 14.025C7.9568 14.0098 7.81298 14.002 7.66905 14.0016C7.63424 14.0024 7.59964 14.0029 7.56525 14.0032C7.45827 14.0046 7.35335 14.0058 7.25098 14.0189C7.09452 14.0383 6.95038 14.1138 6.84519 14.2313C6.74001 14.3487 6.68087 14.5003 6.67872 14.658C6.67257 14.8195 6.72793 14.9774 6.83362 15.0997C6.93931 15.2221 7.08747 15.2997 7.2482 15.3171C7.53089 15.3444 7.81555 15.3444 8.09825 15.3171C8.25448 15.2984 8.39826 15.2225 8.50187 15.1041C8.60548 14.9857 8.6616 14.8331 8.65938 14.6758C8.66035 14.5181 8.60425 14.3653 8.50143 14.2457C8.39861 14.1261 8.256 14.0477 8.09992 14.025ZM7.65623 18.0097C7.61198 18.0075 7.56795 18.0063 7.52419 18.0052C7.42698 18.0026 7.33109 18 7.23704 17.9859C7.081 17.9631 6.93841 17.8849 6.83551 17.7654C6.73261 17.6459 6.67633 17.4933 6.67702 17.3357C6.6732 17.1775 6.72865 17.0236 6.83248 16.9042C6.93629 16.7849 7.081 16.7086 7.23816 16.6904C7.52769 16.6623 7.81927 16.6623 8.1088 16.6904C8.42778 16.7227 8.65491 17.0094 8.65936 17.3245C8.6626 17.4822 8.60853 17.6357 8.50719 17.7567C8.40585 17.8776 8.26411 17.9576 8.10825 17.9819C7.9582 17.9995 7.8073 18.0088 7.65623 18.0097ZM17.0782 16.6729C16.945 16.6734 16.8098 16.674 16.6711 16.674C16.6711 16.5483 16.6711 16.4512 16.6683 16.3561C16.6653 16.2469 16.6635 16.1375 16.6617 16.0281C16.6573 15.7568 16.6527 15.4854 16.6294 15.216C16.6043 14.9276 16.2776 14.6638 16.0092 14.6715C15.7053 14.6804 15.3885 14.9248 15.3757 15.2238C15.3479 15.9152 15.3201 16.6099 15.3479 17.3007C15.3674 17.7823 15.6568 17.9972 16.1467 18.0049C16.2992 18.0078 16.4523 18.0083 16.6049 18.0049C16.7392 18.0023 16.8739 18.0005 17.0086 17.9986C17.3803 17.9935 17.7525 17.9884 18.1201 17.966C18.3673 17.9509 18.5371 17.7778 18.6112 17.5457C18.6501 17.4375 18.6585 17.3206 18.6352 17.2079C18.6121 17.0954 18.5583 16.9912 18.4798 16.9072C18.3072 16.7141 18.0773 16.6778 17.8401 16.674C17.5895 16.671 17.3381 16.6719 17.0782 16.6729Z" fill="currentColor"/>
</svg>
