<svg width="1em" height="1em" viewBox="0 0 24 25" fill="none" xmlns="http://www.w3.org/2000/svg">
<path d="M7.05694 2.91844L8.22394 2.56668C9.54645 2.16804 10.9594 2.81227 11.5258 4.0721L12.4275 6.07782C12.9102 7.15165 12.6558 8.41366 11.7948 9.21661L10.3005 10.6101C10.2568 10.6508 10.2291 10.7058 10.2225 10.7652C10.1781 11.1623 10.4474 11.9357 11.0676 13.01C11.5187 13.7913 11.9269 14.3391 12.2744 14.6473C12.5165 14.862 12.6498 14.9084 12.7065 14.8915L14.7169 14.2769C15.8425 13.9328 17.0623 14.3431 17.751 15.2976L19.0317 17.0726C19.8378 18.1898 19.6928 19.7311 18.6926 20.6784L17.8062 21.5178C16.8498 22.4236 15.4882 22.7611 14.2195 22.407C11.4654 21.6383 8.99608 19.3141 6.78421 15.4831C4.56926 11.6467 3.79207 8.34222 4.50852 5.57043C4.83639 4.30195 5.80252 3.29656 7.05694 2.91844ZM7.48984 4.35461C6.73719 4.58148 6.15751 5.18472 5.96079 5.94581C5.35814 8.27732 6.047 11.2062 8.08325 14.7331C10.1168 18.2552 12.3057 20.3155 14.6227 20.9622C15.384 21.1747 16.2009 20.9722 16.7748 20.4287L17.6611 19.5893C18.1158 19.1587 18.1817 18.4581 17.8153 17.9503L16.5346 16.1753C16.2215 15.7415 15.667 15.5549 15.1554 15.7114L13.1401 16.3275C11.9704 16.6762 10.9087 15.7347 9.7686 13.76C9.00029 12.4293 8.6422 11.4006 8.73177 10.5987C8.77817 10.1832 8.97174 9.79812 9.27746 9.51303L10.7718 8.11958C11.1632 7.7546 11.2788 7.18096 11.0594 6.69286L10.1577 4.68714C9.90026 4.11449 9.25798 3.82165 8.65684 4.00285L7.48984 4.35461Z" fill="currentColor"/>
</svg>
