<svg width="24" height="24" viewBox="0 0 24 24" fill="none" xmlns="http://www.w3.org/2000/svg">
<path d="M3.04934 15.1848L3.0357 15.1459C2.69004 14.161 2.5 13.1032 2.5 12.0001C2.5 6.75328 6.75334 2.5 12 2.5C17.2467 2.5 21.5 6.75328 21.5 12.0001C21.5 17.2467 17.2467 21.5 12 21.5C11.0651 21.5 10.1628 21.3628 9.30893 21.1109L9.2926 21.1061L9.27597 21.1024C9.26846 21.1008 9.26188 21.0995 9.25676 21.0985C8.41373 20.8884 7.78535 20.7962 7.22821 20.7761C6.66892 20.7559 6.19889 20.8096 5.69201 20.8729L3.04934 15.1848ZM3.04934 15.1848L3.05643 15.2254M3.04934 15.1848L3.05643 15.2254M3.05643 15.2254C3.28918 16.5565 3.33008 17.2034 3.14553 18.1796L3.14551 18.1797M3.05643 15.2254L3.14551 18.1797M3.14551 18.1797C3.08706 18.4887 2.97581 18.7653 2.89054 18.9773C2.87166 19.0242 2.85405 19.068 2.83858 19.1083C2.74648 19.3478 2.70539 19.511 2.72387 19.6899L2.72388 19.6899M3.14551 18.1797L2.72388 19.6899M2.72388 19.6899C2.7528 19.9701 2.77282 20.1218 2.82557 20.2652C2.87368 20.396 2.96103 20.5486 3.17015 20.7759C3.39285 20.9998 3.59249 21.0927 3.74006 21.1365C3.8585 21.1717 3.9192 21.1761 3.99421 21.1816C4.03912 21.1848 4.08915 21.1885 4.15977 21.1993L4.15988 21.1994M2.72388 19.6899L4.15988 21.1994M4.15988 21.1994C4.33864 21.2268 4.50549 21.1949 4.75041 21.1182M4.15988 21.1994L4.75041 21.1182M4.75041 21.1182C4.79078 21.1056 4.83453 21.0912 4.88129 21.0758M4.75041 21.1182L4.88129 21.0758M4.88129 21.0758C5.09822 21.0045 5.3801 20.9119 5.69195 20.8729L4.88129 21.0758Z" stroke="#212121"/>
<path fill-rule="evenodd" clip-rule="evenodd" d="M10.4112 8.12077C10.4458 7.77542 10.7354 7.51489 11.0848 7.51489C11.4592 7.51489 11.7638 7.81633 11.7638 8.18695V14.1978C11.7638 14.5683 11.4592 14.8698 11.0848 14.8698C10.7355 14.8698 10.4458 14.6094 10.4112 14.264L10.41 14.2514V8.13329L10.4112 8.12077ZM12.6867 10.2502C12.6867 9.86468 13.087 9.69537 13.3684 9.69537C13.7389 9.69537 14.0404 9.99686 14.0404 10.3674V14.1978C14.0404 14.5683 13.7389 14.8698 13.3684 14.8698C13.087 14.8698 12.6867 14.751 12.6867 14.1978V10.2502ZM16.5918 9.80022C16.8733 9.66137 17.1888 9.58928 17.5216 9.58928C18.3991 9.58928 19.4238 10.1759 19.4238 11.8292V14.1612C19.4238 14.5192 19.1604 14.8411 18.8034 14.8679C18.5003 14.8907 18.09 14.7898 18.0701 14.1978V11.9256C18.0701 11.1776 17.7914 10.7984 17.2418 10.7984C16.7679 10.7984 16.4497 11.1448 16.3447 11.4881L16.3405 11.5006C16.3137 11.5739 16.2978 11.6896 16.2978 11.8099V14.1612C16.2978 14.5192 16.0343 14.8411 15.6774 14.8679C15.3744 14.8907 15.0799 14.7109 14.9739 14.4502C14.9739 14.4502 14.95 14.4392 14.9441 14.1978V11.2117C14.9441 10.6938 14.9327 10.3215 14.9061 9.96658C14.8951 9.82017 15.0109 9.69537 15.1578 9.69537H15.9154C15.9707 9.69537 16.0105 9.72654 16.0511 9.75831C16.0735 9.7758 16.096 9.79348 16.1216 9.80624C16.1922 9.84166 16.4737 9.85843 16.5918 9.80022ZM6.29781 13.0094C6.4271 13.4861 6.83864 13.8055 7.3248 13.8055C8.05483 13.8055 8.49069 13.2254 8.49069 12.2537C8.49069 11.5148 8.13913 10.7694 7.35372 10.7694C6.87288 10.7694 6.4457 11.1239 6.31488 11.6316C6.29297 11.7122 6.26499 11.8251 6.26499 11.916V12.7169C6.26499 12.8171 6.28022 12.9122 6.29764 13.0086L6.29781 13.0094ZM6.60214 9.81126C6.90045 9.66485 7.24138 9.58928 7.61425 9.58928C8.90654 9.58928 9.84443 10.6935 9.84443 12.2151C9.84443 14.1121 8.61337 14.976 7.46949 14.976C7.15064 14.976 6.84962 14.9124 6.58455 14.792C6.43454 14.7239 6.26499 14.8406 6.26499 15.0053V16.1082C6.26499 16.4991 5.92943 16.8132 5.53118 16.7773C5.17868 16.7458 4.92081 16.4267 4.92081 16.0727V11.4722C4.92081 10.8892 4.8825 9.95873 4.8825 9.95873C4.86266 9.67046 5.29598 9.69537 5.29598 9.69537H5.93256C6.08144 9.69455 6.10307 9.73169 6.12554 9.77028C6.13059 9.77895 6.13568 9.78769 6.14226 9.79608C6.14584 9.80067 6.14961 9.80651 6.15386 9.81309C6.19188 9.87202 6.26869 9.99105 6.60214 9.81126ZM13.3879 8.09147C13.7617 8.09147 14.0647 8.39444 14.0647 8.76819C14.0647 9.14195 13.7617 9.44492 13.3879 9.44492C13.0142 9.44492 12.7112 9.14195 12.7112 8.76819C12.7112 8.39444 13.0142 8.09147 13.3879 8.09147Z" fill="#212121"/>
</svg>
