<svg width="1em" height="1em" viewBox="0 0 24 24" fill="none" xmlns="http://www.w3.org/2000/svg">
<path fill-rule="evenodd" clip-rule="evenodd" d="M5.5 4.25C5.5 3.83579 5.83579 3.5 6.25 3.5H12V8C12 9.10457 12.8954 10 14 10H19.5378C19.6484 9.99447 19.7592 9.99447 19.8698 10H20V9.66421C20 9.20009 19.8156 8.75497 19.4874 8.42678L13.5732 2.51256C13.245 2.18437 12.7999 2 12.3358 2H6.25C5.00736 2 4 3.00736 4 4.25V19.75C4 20.9926 5.00736 22 6.25 22H10.3007C10.0375 21.5732 9.92216 21.0483 10.0293 20.5H6.25C5.83579 20.5 5.5 20.1642 5.5 19.75V4.25ZM13.5 8V4.56066L17.4393 8.5H14C13.7239 8.5 13.5 8.27614 13.5 8Z" fill="currentColor"/>
<path fill-rule="evenodd" clip-rule="evenodd" d="M19.7155 11C20.3001 11.0003 20.8846 11.2234 21.3306 11.6695C22.2232 12.5621 22.2232 14.0093 21.3306 14.9019L15.4282 20.8043C15.0841 21.1485 14.6529 21.3926 14.1807 21.5106L12.35 21.9683C11.5539 22.1674 10.8327 21.4462 11.0318 20.6501L11.4895 18.8194C11.6075 18.3472 11.8516 17.916 12.1958 17.5719L18.0982 11.6695C18.5442 11.2234 19.1288 11.0003 19.7134 11H19.7155ZM19.1589 12.73C19.3123 12.5767 19.5104 12.5002 19.7138 12.5H19.715C19.9183 12.5002 20.1165 12.5767 20.2699 12.7302C20.5767 13.037 20.5767 13.5344 20.2699 13.8412L14.3673 19.7438C14.2156 19.8956 14.0253 20.0033 13.8168 20.0554L12.6539 20.3461L12.9447 19.1831C12.9968 18.9746 13.1046 18.7843 13.2564 18.6326L19.1589 12.73Z" fill="currentColor"/>
</svg>
