<svg width="1em" height="1em" viewBox="0 0 25 24" fill="none" xmlns="http://www.w3.org/2000/svg">
<path d="M6.66666 2C5.56209 2 4.66666 2.89543 4.66666 4V20C4.66666 21.1046 5.56209 22 6.66666 22H18.6667C19.7713 22 20.6667 21.1046 20.6667 20V9.82777C20.6667 9.29733 20.456 8.78863 20.0809 8.41355L14.2531 2.58579C13.8781 2.21071 13.3694 2 12.8389 2H6.66666ZM6.16666 4C6.16666 3.72386 6.39052 3.5 6.66666 3.5H12.6667V8C12.6667 9.10457 13.5621 10 14.6667 10H19.1667V20C19.1667 20.2761 18.9428 20.5 18.6667 20.5H6.66666C6.39052 20.5 6.16666 20.2761 6.16666 20V4ZM18.046 8.5H14.6667C14.3906 8.5 14.1667 8.27614 14.1667 8V4.62066L18.046 8.5Z" fill="currentColor"/>
</svg>
