<svg width="1em" height="1em" viewBox="0 0 24 24" fill="none" xmlns="http://www.w3.org/2000/svg">
<g clip-path="url(#clip0_2974_52903)">
<path d="M9.712 14.0777L2.62961 10.9614C2.13669 10.7446 2.14335 10.0591 2.60633 9.83739L2.68323 9.80637L18.4575 4.54825C18.9118 4.39688 19.3452 4.79246 19.2645 5.24168L19.2414 5.33212L13.9833 21.1064C13.813 21.6173 13.1299 21.6742 12.8662 21.2337L12.8282 21.16L9.712 14.0777ZM4.59927 10.4741L10.0432 12.8695L13.9156 8.99773C14.1374 8.7759 14.4856 8.75738 14.7285 8.94229L14.792 8.99773C15.0138 9.21957 15.0323 9.56777 14.8474 9.81064L14.792 9.87409L10.9195 13.7458L13.3156 19.1904L17.6738 6.11593L4.59927 10.4741Z" fill="currentColor"/>
</g>
<defs>
<clipPath id="clip0_2974_52903">
<rect width="24" height="24" fill="currentColor"/>
</clipPath>
</defs>
</svg>
