<svg width="1em" height="1em" viewBox="0 0 24 24" fill="none" xmlns="http://www.w3.org/2000/svg">
<path d="M19.78 6.55998C19.71 5.57998 19.05 4.71998 18.1 4.36998L13.76 2.78998C12.63 2.36998 11.37 2.36998 10.24 2.78998L5.89997 4.36998C4.94997 4.71998 4.28997 5.57998 4.21997 6.55998C3.70997 13.31 6.19997 18.31 11.63 21.43C11.74 21.49 11.87 21.53 12 21.53C12.13 21.53 12.26 21.49 12.37 21.43C17.8 18.31 20.29 13.31 19.78 6.55998ZM11.98 18.52C11.98 18.8 11.83 19.06 11.58 19.19C11.47 19.24 11.35 19.27 11.23 19.27C11.08 19.27 10.93 19.23 10.8 19.14C8.13997 17.29 5.25997 13.17 5.89997 7.64998C5.95997 6.86998 6.49997 6.14998 7.28997 5.85998C10.69 4.40998 11.08 4.40998 11.23 4.40998C11.65 4.40998 11.98 4.73998 11.98 5.15998V18.52Z" fill="currentColor"/>
</svg>
