<svg width="1em" height="1em" viewBox="0 0 24 24" fill="none" xmlns="http://www.w3.org/2000/svg">
<path fill-rule="evenodd" clip-rule="evenodd" d="M6 2C4.89543 2 4 2.89543 4 4V20C4 21.1046 4.89543 22 6 22H14.6713C14.17 21.5943 13.7575 21.083 13.4678 20.5H6C5.72386 20.5 5.5 20.2761 5.5 20V4C5.5 3.72386 5.72386 3.5 6 3.5H12V8C12 9.10457 12.8954 10 14 10H18.5V14.1115C19.044 14.235 19.5506 14.457 20 14.7578V9.82777C20 9.29733 19.7893 8.78863 19.4142 8.41355L13.5864 2.58579C13.2114 2.21071 12.7027 2 12.1722 2H6ZM17.3793 8.5H14C13.7239 8.5 13.5 8.27614 13.5 8V4.62066L17.3793 8.5ZM20.0072 17.3155C20.2641 17.0265 20.2381 16.5841 19.9491 16.3272C19.6602 16.0704 19.2177 16.0964 18.9609 16.3853L16.808 18.8073L15.9932 17.8906C15.7364 17.6017 15.2939 17.5756 15.005 17.8325C14.716 18.0893 14.69 18.5318 14.9468 18.8207L16.2849 20.326C16.4177 20.4754 16.6081 20.5609 16.808 20.5609C17.008 20.5609 17.1984 20.4754 17.3312 20.326L20.0072 17.3155Z" fill="currentColor"/>
</svg>
