<svg width="1em" height="1em" viewBox="0 0 25 24" fill="none" xmlns="http://www.w3.org/2000/svg">
<path d="M20.5024 17.2534L20.4956 17.1516C20.4459 16.7855 20.1321 16.5034 19.7524 16.5034L7.06044 16.5025L10.278 13.2826L10.3506 13.1985C10.5683 12.9048 10.5439 12.4881 10.2776 12.2219C9.98454 11.9292 9.50974 11.9294 9.21694 12.2224L4.71694 16.7262L4.64434 16.8103C4.42664 17.104 4.45104 17.5207 4.71734 17.7868L9.21734 22.2831L9.30154 22.3556C9.59524 22.5734 10.0119 22.549 10.278 22.2826L10.3506 22.1985C10.5683 21.9048 10.5439 21.4881 10.2776 21.2219L7.05644 18.0025L19.7524 18.0034L19.8542 17.9965C20.2203 17.9469 20.5024 17.6331 20.5024 17.2534ZM20.2827 6.21687L15.7877 1.72211L15.7036 1.6495C15.41 1.43165 14.9933 1.45587 14.727 1.72215L14.6544 1.80627C14.4365 2.09989 14.4608 2.51655 14.7271 2.78281L17.9453 5.99946L5.24754 6.00012L5.14574 6.00697C4.77964 6.05663 4.49754 6.37043 4.49754 6.75012L4.50434 6.85189C4.55404 7.21797 4.86784 7.50012 5.24754 7.50012L17.9433 7.49946L14.7265 10.7224L14.6539 10.8066C14.4364 11.1004 14.461 11.517 14.7276 11.783C15.0208 12.0756 15.4957 12.0751 15.7883 11.7819L20.2833 7.27697L20.3558 7.19284C20.5732 6.89922 20.5488 6.48293 20.2827 6.21687Z" fill="currentColor"/>
</svg>
