<svg width="1em" height="1em" viewBox="0 0 24 24" fill="none" xmlns="http://www.w3.org/2000/svg">
<path d="M20.3625 17.1173L20.3637 17.1257L20.3717 17.2443V17.2527C20.3717 17.759 19.9955 18.1773 19.507 18.2435L19.4987 18.2447L19.3801 18.2527L7.27949 18.2518L10.0736 21.0444C10.4286 21.3993 10.4612 21.9547 10.1707 22.3467L10.1652 22.3541L10.0806 22.4521L10.0741 22.4586C9.71927 22.8138 9.16377 22.8464 8.77184 22.5557L8.76453 22.5503L8.66641 22.4658L4.15984 17.9629C3.80472 17.6081 3.77221 17.0526 4.06271 16.6607L4.06824 16.6533L4.15286 16.5552L8.65932 12.045C9.04966 11.6544 9.68289 11.6542 10.0737 12.0445C10.4287 12.3994 10.4612 12.9548 10.1707 13.3467L10.1652 13.3541L10.0805 13.4522L7.28286 16.2518L19.3717 16.2527C19.878 16.2527 20.2963 16.6288 20.3625 17.1173Z" fill="currentColor"/>
<path d="M14.1703 11.9593C13.8148 11.6046 13.782 11.0492 14.0722 10.6571L14.0777 10.6497L14.1623 10.5516L16.9598 7.74883L4.86675 7.74946C4.36045 7.74945 3.94214 7.37335 3.87583 6.88486L3.87468 6.87641L3.86675 6.7578V6.74946C3.86675 6.24318 4.2428 5.82485 4.73135 5.75858L4.73973 5.75744L4.85834 5.74946L16.9608 5.74883L14.1695 2.95891C13.8145 2.6039 13.7821 2.04848 14.0729 1.65663L14.0784 1.64923L14.163 1.55119L14.1695 1.54472C14.5245 1.18964 15.0799 1.15736 15.4718 1.44806L15.4792 1.45356L15.5772 1.53819L20.0787 6.03943C20.4335 6.39421 20.4661 6.94913 20.176 7.34095L20.1705 7.34835L20.086 7.44642L15.5845 11.9578C15.1944 12.3487 14.5612 12.3494 14.1703 11.9593Z" fill="currentColor"/>
</svg>
