<svg width="1em" height="1em" viewBox="0 0 24 24" fill="none" xmlns="http://www.w3.org/2000/svg">
<path fill-rule="evenodd" clip-rule="evenodd" d="M6.3391 5.86442C6.3391 7.99529 8.07264 9.72884 10.2035 9.72884C12.3344 9.72884 14.0679 7.99529 14.0679 5.86442C14.0679 3.73354 12.3344 2 10.2035 2C8.07264 2 6.3391 3.73354 6.3391 5.86442ZM7.89465 5.86442C7.89465 4.59132 8.93042 3.55555 10.2035 3.55555C11.4766 3.55555 12.5124 4.59132 12.5124 5.86442C12.5124 7.13752 11.4766 8.17329 10.2035 8.17329C8.93042 8.17329 7.89465 7.13752 7.89465 5.86442ZM4 21.2222C4 21.6518 4.34822 22 4.77777 22C5.20733 22 5.55555 21.6518 5.55555 21.2222V15.7238C5.55555 14.1061 6.87176 12.7898 8.48953 12.7898H11.9177C12.9217 12.7898 13.847 13.3001 14.3928 14.1549C14.5504 14.4014 14.6693 14.6683 14.7468 14.9478C14.8613 15.362 15.2904 15.6054 15.7037 15.49C16.1177 15.3756 16.3606 14.9469 16.2459 14.5332C16.1273 14.1038 15.945 13.6947 15.7041 13.3174C14.871 12.013 13.4555 11.2341 11.9177 11.2341H8.48953C6.01399 11.2341 4 13.2481 4 15.7236V21.2222ZM15.6295 22C15.2 22 14.8518 21.6517 14.8518 21.2222V20.7253C14.8518 20.2957 15.2 19.9475 15.6295 19.9475C16.0591 19.9475 16.4073 20.2957 16.4073 20.7253V21.2222C16.4073 21.6517 16.0589 22 15.6295 22ZM18.2262 15.3835L20.1184 17.2757C20.4221 17.5792 20.4221 18.0717 20.1184 18.3752L18.2262 20.2677C18.0744 20.4194 17.8753 20.4954 17.6762 20.4954C17.4771 20.4954 17.2782 20.4197 17.1262 20.2677C16.8224 19.9641 16.8224 19.4717 17.1262 19.1679L17.6908 18.6032H10.2035C9.77399 18.6032 9.42577 18.255 9.42577 17.8255C9.42577 17.3959 9.77399 17.0477 10.2035 17.0477H17.6908L17.1264 16.4832C16.8226 16.1797 16.8226 15.687 17.1264 15.3835C17.4302 15.0797 17.9224 15.0797 18.2262 15.3835Z" fill="currentColor"/>
</svg>
