<svg width="1em" height="1em" viewBox="0 0 32 32" fill="none" xmlns="http://www.w3.org/2000/svg">
<path d="M4 28L5.685 21.835C4.645 20.03 4.10001 17.985 4.10001 15.89C4.10501 9.335 9.44 4 15.995 4C19.175 4 22.16 5.24 24.405 7.49C26.65 9.74 27.885 12.725 27.885 15.905C27.885 22.46 22.55 27.795 15.995 27.795C14.005 27.795 12.04 27.295 10.305 26.345L4 28ZM10.595 24.19C12.275 25.185 13.875 25.78 15.99 25.78C21.435 25.78 25.875 21.345 25.88 15.895C25.88 10.435 21.465 6.005 15.995 6.005C10.545 6.005 6.10999 10.44 6.10999 15.89C6.10499 18.115 6.76001 19.78 7.85501 21.525L6.85501 25.175L10.595 24.195V24.19ZM21.985 18.725C21.91 18.6 21.71 18.525 21.415 18.38C21.115 18.23 19.655 17.51 19.385 17.415C19.11 17.315 18.915 17.265 18.715 17.565C18.515 17.86 17.945 18.53 17.775 18.73C17.6 18.93 17.425 18.955 17.13 18.805C16.83 18.655 15.875 18.345 14.74 17.33C13.855 16.54 13.26 15.57 13.085 15.27C12.915 14.975 13.07 14.81 13.215 14.665C13.35 14.53 13.515 14.32 13.66 14.145C13.815 13.975 13.86 13.85 13.96 13.65C14.06 13.45 14.01 13.28 13.935 13.13C13.86 12.98 13.27 11.52 13.02 10.925C12.78 10.345 12.535 10.425 12.35 10.415L11.78 10.405C11.585 10.405 11.26 10.48 10.99 10.775C10.72 11.075 9.95001 11.79 9.95001 13.255C9.95001 14.72 11.015 16.13 11.165 16.33C11.31 16.53 13.26 19.53 16.24 20.815C16.95 21.12 17.5 21.305 17.935 21.44C18.645 21.665 19.295 21.635 19.805 21.56C20.375 21.475 21.565 20.84 21.81 20.145C22.06 19.45 22.06 18.855 21.985 18.73V18.725Z" fill="currentColor"/>
</svg>
